<?xml version="1.0" encoding="UTF-8"?>
<svg id="Layer_4" data-name="Layer 4" xmlns="http://www.w3.org/2000/svg" viewBox="0 0 3000 991.65">
  <g>
    <path d="M2661.29,777.09v16.15c0,66.44-54.05,120.5-120.5,120.5-39.01,0-73.74-18.63-95.78-47.46h-19.23c24.21,37.99,66.72,63.24,115.01,63.24,75.16,0,136.28-61.14,136.28-136.28v-16.15h-15.78Z" style="fill: white; stroke-width: 0px;"/>
    <polygon points="2585.13 851.54 2585.13 777.09 2569.35 777.09 2569.35 835.75 2428.04 835.75 2411.3 835.75 2315.72 835.75 2298.98 835.75 2157.67 835.75 2157.67 777.09 2141.89 777.09 2141.89 851.54 2291.65 851.54 2309.41 851.54 2417.62 851.54 2435.37 851.54 2585.13 851.54" style="fill: white; stroke-width: 0px;"/>
    <path d="M2186.24,913.74c-66.45,0-120.5-54.06-120.5-120.5v-16.15h-15.78v16.15c0,75.15,61.13,136.28,136.28,136.28,48.29,0,90.8-25.25,115.01-63.24h-19.23c-22.04,28.83-56.77,47.46-95.78,47.46Z" style="fill: white; stroke-width: 0px;"/>
  </g>
  <g>
    <path d="M951.09,777.09v16.15c0,66.44-54.05,120.5-120.5,120.5-39.01,0-73.74-18.63-95.78-47.46h-19.23c24.21,37.99,66.72,63.24,115.01,63.24,75.16,0,136.28-61.14,136.28-136.28v-16.15h-15.78Z" style="fill: white; stroke-width: 0px;"/>
    <polygon points="874.93 851.54 874.93 777.09 859.15 777.09 859.15 835.75 717.84 835.75 701.1 835.75 605.52 835.75 588.78 835.75 447.47 835.75 447.47 777.09 431.69 777.09 431.69 851.54 581.45 851.54 599.2 851.54 707.41 851.54 725.17 851.54 874.93 851.54" style="fill: white; stroke-width: 0px;"/>
    <path d="M476.03,913.74c-66.45,0-120.5-54.06-120.5-120.5v-16.15h-15.78v16.15c0,75.15,61.13,136.28,136.28,136.28,48.29,0,90.8-25.25,115.01-63.24h-19.23c-22.04,28.83-56.77,47.46-95.78,47.46Z" style="fill: white; stroke-width: 0px;"/>
  </g>
  <g>
    <polygon points="1538.55 517.72 1496.46 517.72 1496.46 429.9 1391.6 429.9 1391.6 710.7 1496.46 710.7 1496.46 600.75 1538.55 600.75 1538.55 710.7 1643.4 710.7 1643.4 429.9 1538.55 429.9 1538.55 517.72" style="fill: white; stroke-width: 0px;"/>
    <path d="M1851.99,639.98c0,6.08-2.46,11.59-6.44,15.56-3.98,4-9.5,6.46-15.57,6.46-12.15,0-22-9.86-22-22.01v-210.08h-104.87v197.06c0,51.75,41.94,93.69,93.69,93.69h66.37c51.75,0,93.69-41.94,93.69-93.69v-197.06h-104.87v210.08Z" style="fill: white; stroke-width: 0px;"/>
    <polygon points="2044.11 429.9 1978.94 429.9 1978.94 495.08 2044.11 495.08 2044.11 710.7 2148.98 710.7 2148.98 495.08 2214.27 495.08 2214.27 429.9 2148.98 429.9 2044.11 429.9" style="fill: white; stroke-width: 0px;"/>
    <polygon points="2291.13 429.9 2225.94 429.9 2225.94 495.08 2291.13 495.08 2291.13 710.7 2396 710.7 2396 495.08 2461.29 495.08 2461.29 429.9 2396 429.9 2291.13 429.9" style="fill: white; stroke-width: 0px;"/>
    <polygon points="2591.71 429.9 2486.84 429.9 2486.84 710.7 2531.62 710.7 2591.71 710.7 2686 710.7 2686 645.51 2591.71 645.51 2591.71 429.9" style="fill: white; stroke-width: 0px;"/>
    <polygon points="2772.8 429.9 2707.95 429.9 2707.95 710.7 2772.8 710.7 2812.82 710.7 2927.18 710.7 2927.18 645.51 2812.82 645.51 2812.82 598.68 2918.09 598.68 2918.09 537.71 2812.82 537.71 2812.82 495.08 2927.18 495.08 2927.18 429.9 2812.82 429.9 2772.8 429.9" style="fill: white; stroke-width: 0px;"/>
    <polygon points="2835.92 79.96 2835.92 241.89 2780.35 79.96 2641.05 79.96 2641.05 360.76 2732.31 360.76 2732.31 192.5 2792.01 360.76 2927.18 360.76 2927.18 79.96 2835.92 79.96" style="fill: white; stroke-width: 0px;"/>
    <polygon points="2356.31 360.51 2385.12 195.23 2413.95 360.51 2566.26 360.51 2610.19 79.96 2514.8 79.96 2490.1 263.16 2454.43 79.96 2385.12 79.96 2315.83 79.96 2280.15 263.16 2255.45 79.96 2160.07 79.96 2203.99 360.51 2356.31 360.51" style="fill: white; stroke-width: 0px;"/>
    <path d="M2133.32,267.27v-93.65c0-57.98-47-104.98-104.98-104.98h-49.92c-57.97,0-104.97,47-104.97,104.98v93.65c0,57.98,47,104.99,104.97,104.99h49.92c57.98,0,104.98-47,104.98-104.99ZM2025.24,294.55c0,10.52-8.52,19.04-19.04,19.04h-5.66c-10.52,0-19.04-8.52-19.04-19.04v-148.2c0-10.52,8.52-19.04,19.04-19.04h5.66c10.52,0,19.04,8.52,19.04,19.04v148.2Z" style="fill: white; stroke-width: 0px;"/>
    <polygon points="1798.36 360.76 1798.36 145.15 1863.65 145.15 1863.65 79.96 1798.36 79.96 1693.49 79.96 1628.32 79.96 1628.32 145.15 1693.49 145.15 1693.49 360.76 1798.36 360.76" style="fill: white; stroke-width: 0px;"/>
    <path d="M856.06,580.26c0,23.25-18.85,42.1-42.1,42.1H276.52c-23.25,0-42.11-18.85-42.11-42.1V210.15c0-23.25,18.86-42.1,42.11-42.1,11.63,0,22.15,4.71,29.77,12.34,7.61,7.61,12.32,18.14,12.32,29.76v150.37h148.4v-133.59c0-81.17-65.79-146.96-146.96-146.96h-100.26c-81.16,0-146.96,65.79-146.96,146.96v336.55c0,81.17,65.81,146.96,146.96,146.96h640.6c81.17,0,146.96-65.79,146.96-146.96v-133.58h-151.29v150.36Z" style="fill: white; stroke-width: 0px;"/>
    <path d="M606.53,244.13h20.78c14.36,0,26,11.63,26,25.99v75.43c0,8.26,6.69,14.97,14.97,14.97h99.79c-2.14,0-4.06-.87-5.46-2.26-1.39-1.39-2.26-3.33-2.26-5.46v-74.54c0-26.97-18.27-49.7-43.11-56.44,25.28-10.27,43.11-35.07,43.11-64.03v-8.75c0-38.15-30.93-69.07-69.08-69.07h-189.6v462.46h104.87V244.13ZM606.53,130.74h16.58c16.68,0,30.19,13.52,30.19,30.19,0,8.32-3.38,15.87-8.85,21.34-5.46,5.46-13.01,8.84-21.34,8.84h-16.58v-60.38Z" style="fill: white; stroke-width: 0px;"/>
    <path d="M951.26,68.64h-49.92c-57.97,0-104.97,47-104.97,104.98v93.65c0,57.98,47,104.99,104.97,104.99h49.92c57.98,0,104.98-47,104.98-104.99v-93.65c0-57.98-47-104.98-104.98-104.98ZM948.17,294.55c0,10.52-8.52,19.04-19.04,19.04h-5.66c-10.52,0-19.04-8.52-19.04-19.04v-148.2c0-10.52,8.52-19.04,19.04-19.04h5.66c10.52,0,19.04,8.52,19.04,19.04v148.2Z" style="fill: white; stroke-width: 0px;"/>
    <path d="M1447.26,367.46c29.68,2.31,59.5,2.29,89.18-.09,45.23-3.63,80.09-41.4,80.09-86.78v-13.55c0-34.28-22.41-64.56-55.22-74.55l-75.83-23.12c-9.21-2.8-15.49-11.3-15.49-20.92v-3.38c0-12.07,9.78-21.87,21.87-21.87,6.04,0,11.51,2.45,15.47,6.4,3.96,3.96,6.4,9.43,6.4,15.47v5.41h95.96c-1.3-17.35-7.54-33.57-17.49-47.03-11.26-15.22-27.28-26.92-46.3-32.76-18.58-5.69-37.81-8.55-57.05-8.55s-38.45,2.85-57.05,8.55c-38.06,11.67-64.05,46.82-64.05,86.63v7.86c0,31.94,20.88,60.14,51.45,69.45l47.78,14.57,28.26,8.61c9.21,2.8,15.49,11.3,15.49,20.92v11.97c0,12.07-9.8,21.87-21.87,21.87h-.01c-12.09,0-21.87-9.8-21.87-21.87v-12.61h-103.17v2.33c0,45.45,34.96,83.26,80.27,86.8l3.18.25Z" style="fill: white; stroke-width: 0px;"/>
    <path d="M1290.12,540.36l-75.84-23.12c-9.21-2.8-15.49-11.3-15.49-20.91v-3.39c0-12.07,9.8-21.87,21.87-21.87,6.05,0,11.51,2.45,15.47,6.4s6.4,9.43,6.4,15.47v5.41h95.96c-1.3-17.35-7.54-33.57-17.49-47.03-11.26-15.22-27.28-26.92-46.3-32.76-18.58-5.69-37.81-8.55-57.05-8.55s-38.45,2.85-57.05,8.55c-38.06,11.67-64.05,46.82-64.05,86.63v7.86c0,31.94,20.88,60.14,51.45,69.46l47.78,14.56,28.26,8.61c9.21,2.8,15.49,11.3,15.49,20.92v11.97c0,12.09-9.78,21.87-21.87,21.87h-.01c-12.07,0-21.87-9.78-21.87-21.87v-12.61h-103.17v2.33c0,45.45,34.96,83.26,80.27,86.8l3.18.25c29.68,2.31,59.5,2.29,89.18-.09,45.23-3.63,80.09-41.4,80.09-86.78v-13.55c0-34.28-22.41-64.55-55.21-74.55Z" style="fill: white; stroke-width: 0px;"/>
    <path d="M1164.65,367.21l3.18.25c29.68,2.31,59.5,2.29,89.18-.09,45.23-3.63,80.09-41.4,80.09-86.78v-13.55c0-34.28-22.41-64.56-55.21-74.55l-75.84-23.12c-9.21-2.8-15.49-11.3-15.49-20.92v-3.38c0-12.07,9.8-21.87,21.87-21.87,6.04,0,11.51,2.45,15.47,6.4s6.4,9.43,6.4,15.47v5.41h95.96c-1.3-17.35-7.54-33.57-17.49-47.03-11.26-15.22-27.28-26.92-46.3-32.76-18.58-5.69-37.81-8.55-57.05-8.55s-38.45,2.85-57.05,8.55c-38.06,11.67-64.05,46.82-64.05,86.63v7.86c0,31.94,20.88,60.14,51.45,69.45l47.78,14.57,28.26,8.61c9.21,2.8,15.49,11.3,15.49,20.92v11.97c0,12.07-9.8,21.87-21.87,21.87h-.01c-12.07,0-21.87-9.8-21.87-21.87v-12.61h-103.17v2.33c0,45.45,34.96,83.26,80.27,86.8Z" style="fill: white; stroke-width: 0px;"/>
  </g>
</svg>
