<?xml version="1.0" standalone="no"?>
<!DOCTYPE svg PUBLIC "-//W3C//DTD SVG 20010904//EN"
 "http://www.w3.org/TR/2001/REC-SVG-20010904/DTD/svg10.dtd">
<svg version="1.0" xmlns="http://www.w3.org/2000/svg"
 width="500.000000pt" height="500.000000pt" viewBox="0 0 500.000000 500.000000"
 preserveAspectRatio="xMidYMid meet">
<metadata>
Created by potrace 1.14, written by Peter Selinger 2001-2017
</metadata>
<g transform="translate(0.000000,500.000000) scale(0.100000,-0.100000)"
fill="#000000" stroke="none">
<path d="M0 2500 l0 -2500 2500 0 2500 0 0 2500 0 2500 -2500 0 -2500 0 0
-2500z m2552 2130 c48 -14 97 -55 114 -97 25 -59 29 -58 -156 -58 -185 0 -181
-1 -156 58 18 42 55 75 103 92 47 17 49 17 95 5z m160 -220 c265 -15 499 -48
761 -106 l67 -16 0 -44 0 -44 -85 0 -85 0 0 -41 0 -42 -67 7 c-38 3 -129 13
-203 21 -74 8 -237 20 -362 27 -245 13 -544 3 -818 -27 -74 -8 -165 -18 -202
-21 l-68 -7 0 42 0 41 -85 0 -85 0 0 44 0 44 68 16 c249 56 507 93 737 105
205 12 233 12 427 1z m128 -340 c371 -28 766 -103 1095 -208 l120 -38 0 -84 0
-85 -87 -3 -88 -3 0 -734 0 -735 -1370 0 -1370 0 0 735 0 734 -87 3 -88 3 0
85 0 84 120 38 c319 102 728 181 1075 207 156 12 526 12 680 1z m-1819 -969
l24 -19 3 -840 c2 -838 2 -839 -19 -865 -24 -32 -72 -36 -101 -10 -17 15 -18
55 -18 862 0 465 4 851 8 857 10 15 44 33 63 34 9 0 27 -9 40 -19z m3052 8
c12 -7 25 -17 29 -23 4 -6 8 -391 8 -855 0 -772 -1 -846 -17 -863 -25 -28 -77
-24 -102 8 -21 27 -21 32 -21 861 l0 834 25 24 c27 28 45 31 78 14z m-193
-1484 l0 -465 -1370 0 -1370 0 0 465 0 465 1370 0 1370 0 0 -465z m0 -660 l0
-85 175 0 175 0 0 -85 0 -85 -245 0 c-281 0 -276 -1 -365 86 -62 60 -114 86
-146 74 -62 -24 -45 -51 158 -257 191 -193 203 -212 148 -240 -37 -19 -2503
-19 -2540 0 -55 28 -43 47 148 240 203 206 220 233 158 257 -32 12 -84 -14
-146 -74 -89 -87 -84 -86 -365 -86 l-245 0 0 85 0 85 175 0 175 0 0 85 0 85
1370 0 1370 0 0 -85z"/>
<path d="M1504 3560 c-39 -10 -99 -32 -133 -49 l-61 -31 0 -565 0 -565 340 0
340 0 -2 567 -3 567 -58 28 c-133 66 -288 84 -423 48z"/>
<path d="M2364 3560 c-39 -10 -99 -32 -133 -49 l-61 -31 0 -565 0 -565 340 0
340 0 0 565 0 565 -61 31 c-133 67 -289 85 -425 49z"/>
<path d="M3223 3560 c-39 -10 -97 -32 -130 -47 l-58 -29 -3 -567 -2 -567 340
0 340 0 0 565 0 565 -61 31 c-134 67 -289 85 -426 49z"/>
<path d="M2450 1783 c-62 -25 -110 -94 -110 -158 0 -107 100 -190 205 -171 43
8 103 59 121 103 30 71 5 160 -58 204 -32 23 -125 36 -158 22z"/>
</g>
</svg>
